<svg version="1.1" id="Warstwa_1" xmlns="http://www.w3.org/2000/svg" x="0" y="0" viewBox="0 0 155.9 157" xml:space="preserve"><style>.st0{fill:#726658}.st2{fill:#9b8579}</style><path class="st0" d="M78 157l11-5.3V78.4l-11-5.5z"/><path d="M78 72.9l-2-1v58.9L24.1 45.9H24v-.1l-13-6.5 2 85.2 11-5.8V65.5l52 85 2 6.5zm32.5-10.8v78.7l-13-6.6V68.7z" fill="#594a42"/><path class="st2" d="M155.9 50.3l-13-6.5-65 32.7-19.5-9.9 52-26.2v-11l-65 30.7L26 50.3l65-32.7v-11L0 50.3l77.9 39.3h.1z"/><path class="st2" d="M65 71.9v58.9L13.1 45.9H13v-.1L0 39.3v78.6l13 6.6v-59l52 85 13 6.5V78.4z"/><path class="st0" d="M155.9 39.3l-32.5 16.3-13 6.5L78 78.4v13.1l32.4-16.3v65.6l13-6.6V68.7l32.5-16.3z"/><path fill="#c2b59b" d="M155.9 39.3l-13-6.6-65 32.7-19.5-9.8 52-26.2-13-6.5-52 26.1L26 39.3 91 6.6 78 0 0 39.3l77.9 39.2h.1z"/></svg>