<svg version="1.1" id="Warstwa_1" xmlns="http://www.w3.org/2000/svg" x="0" y="0" viewBox="0 0 302.3 71.9" xml:space="preserve"><style>.st0{fill:#726658}.st2{fill:#9b8579}</style><path class="st0" d="M35.7 71.9l5-2.4V35.9l-5-2.5z"/><path d="M35.7 33.4l-.9-.5v27L11 21l-6-3 .9 39 5.1-2.6V30l23.8 38.9.9 3zm14.9-5v36l-6-2.9v-30z" fill="#594a42"/><path class="st2" d="M71.4 23l-6-3-29.7 15-9-4.5 23.8-12v-5l-29.7 14-8.9-4.5L41.6 8V3L0 23l35.7 18z"/><path class="st2" d="M29.7 32.9v27L6 21h-.1L0 18v36l5.9 3V30l23.8 38.9 6 3v-36z"/><path class="st0" d="M71.4 18l-14.9 7.5-5.9 2.9-14.9 7.5v6l14.9-7.5v30l5.9-2.9v-30L71.4 24z"/><path fill="#c2b59b" d="M71.4 18l-6-3-29.7 15-9-4.6 23.8-11.9-5.9-3-23.8 11.9-8.9-4.4L41.6 3l-5.9-3L0 18l35.7 18z"/><path d="M98.4 30.1h-1.1l-7.7-11.6h-.1v11.6h-1.1V16.6h1.1l7.7 11.6h.1V16.6h1.1v13.5zm13.3-5.7c0 1.7-.5 3.1-1.4 4.2-1 1.1-2.2 1.6-3.8 1.6-1.6 0-2.8-.5-3.8-1.6-.9-1.1-1.4-2.5-1.4-4.2v-2.2c0-1.7.5-3.1 1.4-4.2.9-1.1 2.2-1.6 3.8-1.6 1.6 0 2.9.5 3.8 1.6 1 1.1 1.4 2.5 1.4 4.2v2.2zm-1.1-2.2c0-1.5-.4-2.6-1.1-3.5-.7-.9-1.8-1.3-3.1-1.3s-2.3.4-3 1.3c-.7.9-1.1 2.1-1.1 3.5v2.2c0 1.5.4 2.6 1.1 3.5.7.9 1.7 1.3 3 1.3s2.3-.4 3.1-1.3c.7-.9 1.1-2.1 1.1-3.5v-2.2zm5.1 1.8v6.1h-1.1V16.6h4.6c1.4 0 2.5.3 3.3.9.8.6 1.2 1.6 1.2 2.8 0 .7-.2 1.4-.6 1.9-.4.6-1 1-1.7 1.2.8.2 1.4.6 1.8 1.1.4.5.6 1.2.6 2v1.3c0 .4 0 .8.1 1.1.1.3.3.6.5.8v.2h-1.1c-.2-.2-.4-.5-.5-.9-.1-.4-.1-.8-.1-1.2v-1.2c0-.8-.3-1.5-.8-2s-1.3-.7-2.2-.7h-4zm0-1h3.3c1.2 0 2.1-.2 2.7-.7.6-.5.8-1.2.8-2 0-.9-.3-1.6-.8-2-.6-.5-1.4-.7-2.5-.7h-3.5V23zm11.4 7.1V16.6h3.9c1.6 0 3 .5 4.1 1.6 1.1 1.1 1.6 2.5 1.6 4.2v1.7c0 1.7-.5 3.1-1.6 4.2s-2.4 1.6-4.1 1.6h-3.9zm1.1-12.6v11.6h2.8c1.3 0 2.4-.5 3.3-1.4.9-.9 1.3-2.1 1.3-3.5v-1.8c0-1.4-.4-2.6-1.3-3.5-.9-.9-2-1.4-3.3-1.4h-2.8zm17.2-.9h1.1v9.6c0 1.2-.4 2.2-1.1 2.9-.7.7-1.7 1.1-2.8 1.1-1.3 0-2.3-.3-3-1-.7-.7-1.1-1.6-1.1-2.9v-.1h1c0 1 .3 1.7.8 2.2.5.5 1.3.8 2.2.8.8 0 1.5-.3 2-.8.5-.6.8-1.3.8-2.2v-9.6zm8.5 7.5l4.2-7.5h1.3l-4.9 8.5V30h-1.1v-5l-4.9-8.5h1.3l4.1 7.6zm15.1 2.7c0-.7-.3-1.3-.8-1.8s-1.5-.9-2.9-1.2c-1.5-.4-2.6-.9-3.3-1.4-.8-.6-1.1-1.4-1.1-2.4s.4-1.9 1.3-2.5c.8-.6 1.9-1 3.3-1s2.5.4 3.4 1.2c.9.8 1.3 1.7 1.2 2.8v.1h-1c0-.9-.3-1.6-1-2.2-.6-.6-1.5-.9-2.6-.9s-1.9.2-2.5.7c-.6.5-.9 1.1-.9 1.8s.3 1.2.8 1.7c.6.5 1.5.9 2.9 1.2 1.4.4 2.6.9 3.3 1.5s1.1 1.5 1.1 2.5c0 1.1-.4 1.9-1.3 2.6-.9.6-2 1-3.4 1-1.3 0-2.5-.3-3.5-1s-1.5-1.7-1.5-3v-.1h1c0 1 .4 1.8 1.2 2.3.8.5 1.7.8 2.8.8 1.1 0 1.9-.2 2.6-.7.6-.6.9-1.3.9-2zm6.7-3.1h-1.9V30h-1.1V16.6h1.1v6.2h1.8l5.3-6.2h1.2l-5.6 6.6 6 6.8h-1.3l-5.5-6.3zm-78.6 18h-3.6v11.1h-3.1V41.7h-3.5v-2.4h10.2v2.4zm4.4 5.9v5.2h-3.1V39.3h5.2c1.6 0 2.8.4 3.7 1.1.9.7 1.4 1.7 1.4 3 0 .7-.2 1.3-.6 1.8-.4.5-.9.9-1.6 1.2.8.2 1.4.6 1.8 1.2.4.5.5 1.2.5 2v.9c0 .4.1.8.2 1.2.1.5.3.8.5 1v.2h-3.2c-.2-.2-.4-.5-.5-1-.1-.5-.1-.9-.1-1.4v-.8c0-.6-.2-1.1-.5-1.5-.3-.3-.8-.5-1.5-.5h-2.2zm0-2.4h2.1c.6 0 1.1-.1 1.4-.4.3-.3.5-.7.5-1.2s-.2-1-.5-1.3c-.3-.3-.8-.5-1.4-.5h-2v3.4zm16.6 5h-4.2l-.8 2.6H110l4.3-13.5h3.4l4.4 13.5H119l-.9-2.6zm-3.6-2.4h2.9L116 43h-.1l-1.4 4.8zm19.7 5H131l-4.9-8.6h-.1v8.6h-3.1V39.3h3.1l4.9 8.6h.1v-8.6h3.1v13.5zm9.2-3.6c0-.5-.2-.8-.5-1.1-.3-.3-.9-.5-1.7-.8-1.7-.5-3-1.1-3.8-1.7-.8-.6-1.2-1.5-1.2-2.7 0-1.1.5-2 1.5-2.7 1-.7 2.2-1 3.7-1s2.7.4 3.7 1.2c1 .8 1.4 1.8 1.4 3v.1h-3c0-.5-.2-1-.5-1.3-.4-.3-.9-.5-1.5-.5s-1.1.1-1.5.4c-.4.3-.5.6-.5 1s.2.7.5.9c.4.2 1 .5 2 .9 1.5.5 2.7 1 3.5 1.7.8.7 1.2 1.6 1.2 2.7 0 1.2-.5 2.1-1.4 2.8s-2.1 1-3.7 1c-1.5 0-2.9-.4-4-1.2-1.1-.8-1.7-1.9-1.6-3.3v-.1h3c0 .8.2 1.3.6 1.7.4.3 1.1.5 1.9.5.6 0 1.1-.1 1.4-.4.4-.3.5-.6.5-1.1zm8-1v4.6h-3.1V39.3h5.5c1.6 0 2.9.4 3.8 1.2.9.8 1.4 1.9 1.4 3.2 0 1.3-.5 2.4-1.4 3.2-.9.8-2.2 1.2-3.8 1.2h-2.4zm0-2.4h2.3c.7 0 1.2-.2 1.5-.6.4-.4.5-.9.5-1.4 0-.6-.2-1.1-.5-1.5-.4-.4-.9-.6-1.5-.6h-2.3v4.1zm20.4 1.5c0 1.7-.5 3-1.6 4.1-1.1 1.1-2.4 1.6-4.1 1.6-1.7 0-3.1-.5-4.2-1.6s-1.6-2.4-1.6-4.1v-2.4c0-1.7.5-3 1.6-4.1 1.1-1.1 2.4-1.6 4.1-1.6 1.7 0 3.1.5 4.1 1.6 1.1 1.1 1.6 2.4 1.6 4.1v2.4zm-3.1-2.5c0-1-.2-1.8-.7-2.4-.5-.6-1.1-.9-1.9-.9-.8 0-1.5.3-1.9.9-.4.6-.7 1.4-.7 2.4v2.4c0 1 .2 1.8.7 2.4.5.6 1.1.9 1.9.9.8 0 1.5-.3 1.9-.9.5-.6.7-1.4.7-2.4v-2.4zm8.1 2.8v5.2h-3.1V39.3h5.2c1.6 0 2.8.4 3.7 1.1.9.7 1.4 1.7 1.4 3 0 .7-.2 1.3-.6 1.8-.4.5-.9.9-1.6 1.2.8.2 1.4.6 1.8 1.2.4.5.5 1.2.5 2v.9c0 .4.1.8.2 1.2.1.5.3.8.5 1v.2h-3.2c-.2-.2-.4-.5-.5-1-.1-.5-.1-.9-.1-1.4v-.8c0-.6-.2-1.1-.5-1.5-.3-.3-.8-.5-1.5-.5h-2.2zm0-2.4h2.1c.6 0 1.1-.1 1.4-.4.3-.3.5-.7.5-1.2s-.2-1-.5-1.3c-.3-.3-.8-.5-1.4-.5h-2v3.4zm18.3-3.5h-3.6v11.1h-3.1V41.7h-3.5v-2.4h10.2v2.4zm9.7 5.3h-5.3v3.4h6.2v2.4h-9.4V39.3h9.4v2.4h-6.2v2.9h5.3V47zm6.4-7.7l3 9.4h.1l3.1-9.4h4.1v13.5h-3.1v-3.3l.3-6.2h-.1l-3.2 9.5h-2.1l-3.2-9.4h-.1l.3 6.1v3.3h-3.1V39.3h4zm12.4 13.5V39.3h4.6c1.7 0 3 .3 3.9.9.9.6 1.4 1.5 1.4 2.8 0 .6-.2 1.2-.5 1.7s-.8.9-1.4 1.1c.8.2 1.4.5 1.7 1.1.4.5.6 1.2.6 1.9 0 1.3-.4 2.3-1.3 3-.9.7-2.1 1-3.8 1h-5.2zm3.1-7.8h1.6c.7 0 1.2-.1 1.6-.4.4-.3.5-.6.5-1.2s-.2-1-.5-1.3c-.4-.3-.9-.4-1.6-.4h-1.5V45zm0 2v3.4h2.2c.7 0 1.2-.1 1.5-.4.3-.3.5-.7.5-1.2 0-.6-.1-1-.4-1.3-.3-.3-.8-.4-1.4-.4h-2.4zm16.2 3.2h-4.2l-.8 2.6h-3.1l4.3-13.5h3.4l4.4 13.5h-3.1l-.9-2.6zm-3.5-2.4h2.9l-1.4-4.8h-.1l-1.4 4.8zm11.5 2.6h5.8v2.4h-8.9V39.3h3.1v11.1zm10.3 0h5.8v2.4h-9V39.3h3.1v11.1zm14.4-.2h-4.2l-.8 2.6h-3.1l4.3-13.5h3.4l4.4 13.5h-3.1l-.9-2.6zm-3.5-2.4h2.9l-1.4-4.8h-.1l-1.4 4.8zm18.9 3.1c-.5.5-1.1 1-2 1.4-.9.4-2 .6-3.3.6-1.7 0-3-.5-4.1-1.5-1-1-1.6-2.4-1.6-4v-2.8c0-1.6.5-2.9 1.5-4 1-1 2.3-1.5 3.9-1.5 1.7 0 3 .4 3.9 1.2.9.8 1.4 1.9 1.5 3.3v.1H288c-.1-.7-.3-1.2-.7-1.6-.4-.4-.9-.5-1.6-.5-.7 0-1.3.3-1.8.9-.4.6-.7 1.3-.7 2.2v2.8c0 .9.2 1.7.7 2.3.4.6 1.1.9 1.8.9.6 0 1 0 1.4-.1.3-.1.6-.2.8-.4V48h-2.1v-2.1h5.3v5zm10.4-3.9h-5.3v3.4h6.2v2.4h-9.4V39.3h9.4v2.4h-6.2v2.9h5.3V47z" fill="#3c2415"/></svg>