<?xml version="1.0" encoding="utf-8"?>
<!-- Generator: Adobe Illustrator 23.0.6, SVG Export Plug-In . SVG Version: 6.00 Build 0)  -->
<svg version="1.1" id="Warstwa_1" xmlns="http://www.w3.org/2000/svg" xmlns:xlink="http://www.w3.org/1999/xlink" x="0px" y="0px"
	 viewBox="0 0 302.3 71.9" style="enable-background:new 0 0 302.3 71.9;" xml:space="preserve">
<style type="text/css">
	.st0{fill:#726658;}
	.st1{fill:#594A42;}
	.st2{fill:#9B8579;}
	.st3{fill:#C2B59B;}
	.st4{fill:#3C2415;}
</style>
<g>
	<g>
		<polygon class="st0" points="35.7,71.9 40.7,69.5 40.7,35.9 35.7,33.4 		"/>
	</g>
	<g>
		<polygon class="st1" points="35.7,33.4 34.8,32.9 34.8,59.9 11,21 11,21 11,21 5,18 5.9,57 11,54.4 11,30 34.8,68.9 34.8,68.9 
			35.7,71.9 		"/>
	</g>
	<g>
		<polygon class="st1" points="50.6,28.4 50.6,34.4 50.6,64.4 44.6,61.5 44.6,31.5 		"/>
	</g>
	<g>
		<polygon class="st2" points="71.4,23 65.4,20 35.7,35 26.7,30.5 50.5,18.5 50.5,13.5 20.8,27.5 11.9,23 41.6,8 41.6,3 0,23 0,23 
			0,23 35.7,41 35.7,41 35.7,41 		"/>
	</g>
	<g>
		<polygon class="st2" points="29.7,32.9 29.7,59.9 6,21 5.9,21 5.9,21 0,18 0,54 5.9,57 5.9,30 29.7,68.9 29.7,68.9 35.7,71.9 
			35.7,35.9 		"/>
	</g>
	<g>
		<polygon class="st0" points="71.4,18 56.5,25.5 50.6,28.4 35.7,35.9 35.7,41.9 50.6,34.4 50.6,64.4 56.5,61.5 56.5,31.5 71.4,24 
					"/>
	</g>
	<g>
		<polygon class="st3" points="71.4,18 65.4,15 35.7,30 26.7,25.4 50.5,13.5 44.6,10.5 20.8,22.4 11.9,18 41.6,3 35.7,0 0,18 
			35.7,36 35.7,36 35.7,36 		"/>
	</g>
	<g>
		<path class="st4" d="M98.4,30.1h-1.1l-7.7-11.6l-0.1,0v11.6h-1.1V16.6h1.1l7.7,11.6l0.1,0V16.6h1.1V30.1z"/>
		<path class="st4" d="M111.7,24.4c0,1.7-0.5,3.1-1.4,4.2c-1,1.1-2.2,1.6-3.8,1.6c-1.6,0-2.8-0.5-3.8-1.6c-0.9-1.1-1.4-2.5-1.4-4.2
			v-2.2c0-1.7,0.5-3.1,1.4-4.2c0.9-1.1,2.2-1.6,3.8-1.6c1.6,0,2.9,0.5,3.8,1.6c1,1.1,1.4,2.5,1.4,4.2V24.4z M110.6,22.2
			c0-1.5-0.4-2.6-1.1-3.5c-0.7-0.9-1.8-1.3-3.1-1.3c-1.3,0-2.3,0.4-3,1.3c-0.7,0.9-1.1,2.1-1.1,3.5v2.2c0,1.5,0.4,2.6,1.1,3.5
			c0.7,0.9,1.7,1.3,3,1.3c1.3,0,2.3-0.4,3.1-1.3c0.7-0.9,1.1-2.1,1.1-3.5V22.2z"/>
		<path class="st4" d="M115.7,24v6.1h-1.1V16.6h4.6c1.4,0,2.5,0.3,3.3,0.9c0.8,0.6,1.2,1.6,1.2,2.8c0,0.7-0.2,1.4-0.6,1.9
			c-0.4,0.6-1,1-1.7,1.2c0.8,0.2,1.4,0.6,1.8,1.1c0.4,0.5,0.6,1.2,0.6,2v1.3c0,0.4,0,0.8,0.1,1.1c0.1,0.3,0.3,0.6,0.5,0.8v0.2h-1.1
			c-0.2-0.2-0.4-0.5-0.5-0.9c-0.1-0.4-0.1-0.8-0.1-1.2v-1.2c0-0.8-0.3-1.5-0.8-2c-0.5-0.5-1.3-0.7-2.2-0.7H115.7z M115.7,23h3.3
			c1.2,0,2.1-0.2,2.7-0.7c0.6-0.5,0.8-1.2,0.8-2c0-0.9-0.3-1.6-0.8-2c-0.6-0.5-1.4-0.7-2.5-0.7h-3.5V23z"/>
		<path class="st4" d="M127.1,30.1V16.6h3.9c1.6,0,3,0.5,4.1,1.6c1.1,1.1,1.6,2.5,1.6,4.2v1.7c0,1.7-0.5,3.1-1.6,4.2
			c-1.1,1.1-2.4,1.6-4.1,1.6H127.1z M128.2,17.5v11.6h2.8c1.3,0,2.4-0.5,3.3-1.4c0.9-0.9,1.3-2.1,1.3-3.5v-1.8
			c0-1.4-0.4-2.6-1.3-3.5c-0.9-0.9-2-1.4-3.3-1.4H128.2z"/>
		<path class="st4" d="M145.4,16.6h1.1v9.6c0,1.2-0.4,2.2-1.1,2.9c-0.7,0.7-1.7,1.1-2.8,1.1c-1.3,0-2.3-0.3-3-1
			c-0.7-0.7-1.1-1.6-1.1-2.9l0-0.1h1c0,1,0.3,1.7,0.8,2.2c0.5,0.5,1.3,0.8,2.2,0.8c0.8,0,1.5-0.3,2-0.8c0.5-0.6,0.8-1.3,0.8-2.2
			V16.6z"/>
		<path class="st4" d="M153.9,24.1l4.2-7.5h1.3l-4.9,8.5v4.9h-1.1v-5l-4.9-8.5h1.3L153.9,24.1z"/>
		<path class="st4" d="M169,26.8c0-0.7-0.3-1.3-0.8-1.8c-0.5-0.5-1.5-0.9-2.9-1.2c-1.5-0.4-2.6-0.9-3.3-1.4
			c-0.8-0.6-1.1-1.4-1.1-2.4c0-1,0.4-1.9,1.3-2.5c0.8-0.6,1.9-1,3.3-1c1.4,0,2.5,0.4,3.4,1.2c0.9,0.8,1.3,1.7,1.2,2.8l0,0.1h-1
			c0-0.9-0.3-1.6-1-2.2c-0.6-0.6-1.5-0.9-2.6-0.9c-1.1,0-1.9,0.2-2.5,0.7c-0.6,0.5-0.9,1.1-0.9,1.8c0,0.7,0.3,1.2,0.8,1.7
			c0.6,0.5,1.5,0.9,2.9,1.2c1.4,0.4,2.6,0.9,3.3,1.5s1.1,1.5,1.1,2.5c0,1.1-0.4,1.9-1.3,2.6c-0.9,0.6-2,1-3.4,1
			c-1.3,0-2.5-0.3-3.5-1c-1-0.7-1.5-1.7-1.5-3l0-0.1h1c0,1,0.4,1.8,1.2,2.3c0.8,0.5,1.7,0.8,2.8,0.8c1.1,0,1.9-0.2,2.6-0.7
			C168.7,28.2,169,27.5,169,26.8z"/>
		<path class="st4" d="M175.7,23.7h-1.9v6.3h-1.1V16.6h1.1v6.2h1.8l5.3-6.2h1.2l0,0l-5.6,6.6l6,6.8l0,0h-1.3L175.7,23.7z"/>
		<path class="st4" d="M97.1,41.7h-3.6v11.1h-3.1V41.7h-3.5v-2.4h10.2V41.7z"/>
		<path class="st4" d="M101.5,47.6v5.2h-3.1V39.3h5.2c1.6,0,2.8,0.4,3.7,1.1c0.9,0.7,1.4,1.7,1.4,3c0,0.7-0.2,1.3-0.6,1.8
			c-0.4,0.5-0.9,0.9-1.6,1.2c0.8,0.2,1.4,0.6,1.8,1.2c0.4,0.5,0.5,1.2,0.5,2v0.9c0,0.4,0.1,0.8,0.2,1.2c0.1,0.5,0.3,0.8,0.5,1v0.2
			h-3.2c-0.2-0.2-0.4-0.5-0.5-1c-0.1-0.5-0.1-0.9-0.1-1.4v-0.8c0-0.6-0.2-1.1-0.5-1.5c-0.3-0.3-0.8-0.5-1.5-0.5H101.5z M101.5,45.2
			h2.1c0.6,0,1.1-0.1,1.4-0.4c0.3-0.3,0.5-0.7,0.5-1.2c0-0.5-0.2-1-0.5-1.3c-0.3-0.3-0.8-0.5-1.4-0.5h-2V45.2z"/>
		<path class="st4" d="M118.1,50.2h-4.2l-0.8,2.6h-3.1l4.3-13.5h3.4l4.4,13.5h-3.1L118.1,50.2z M114.5,47.8h2.9L116,43h-0.1
			L114.5,47.8z"/>
		<path class="st4" d="M134.2,52.8H131l-4.9-8.6l-0.1,0v8.6h-3.1V39.3h3.1l4.9,8.6l0.1,0v-8.6h3.1V52.8z"/>
		<path class="st4" d="M143.4,49.2c0-0.5-0.2-0.8-0.5-1.1c-0.3-0.3-0.9-0.5-1.7-0.8c-1.7-0.5-3-1.1-3.8-1.7
			c-0.8-0.6-1.2-1.5-1.2-2.7c0-1.1,0.5-2,1.5-2.7c1-0.7,2.2-1,3.7-1c1.5,0,2.7,0.4,3.7,1.2c1,0.8,1.4,1.8,1.4,3l0,0.1h-3
			c0-0.5-0.2-1-0.5-1.3c-0.4-0.3-0.9-0.5-1.5-0.5c-0.6,0-1.1,0.1-1.5,0.4c-0.4,0.3-0.5,0.6-0.5,1c0,0.4,0.2,0.7,0.5,0.9
			c0.4,0.2,1,0.5,2,0.9c1.5,0.5,2.7,1,3.5,1.7c0.8,0.7,1.2,1.6,1.2,2.7c0,1.2-0.5,2.1-1.4,2.8s-2.1,1-3.7,1c-1.5,0-2.9-0.4-4-1.2
			c-1.1-0.8-1.7-1.9-1.6-3.3l0-0.1h3c0,0.8,0.2,1.3,0.6,1.7c0.4,0.3,1.1,0.5,1.9,0.5c0.6,0,1.1-0.1,1.4-0.4
			C143.3,50,143.4,49.7,143.4,49.2z"/>
		<path class="st4" d="M151.4,48.2v4.6h-3.1V39.3h5.5c1.6,0,2.9,0.4,3.8,1.2c0.9,0.8,1.4,1.9,1.4,3.2c0,1.3-0.5,2.4-1.4,3.2
			c-0.9,0.8-2.2,1.2-3.8,1.2H151.4z M151.4,45.8h2.3c0.7,0,1.2-0.2,1.5-0.6c0.4-0.4,0.5-0.9,0.5-1.4c0-0.6-0.2-1.1-0.5-1.5
			c-0.4-0.4-0.9-0.6-1.5-0.6h-2.3V45.8z"/>
		<path class="st4" d="M171.8,47.3c0,1.7-0.5,3-1.6,4.1c-1.1,1.1-2.4,1.6-4.1,1.6c-1.7,0-3.1-0.5-4.2-1.6c-1.1-1.1-1.6-2.4-1.6-4.1
			v-2.4c0-1.7,0.5-3,1.6-4.1c1.1-1.1,2.4-1.6,4.1-1.6c1.7,0,3.1,0.5,4.1,1.6c1.1,1.1,1.6,2.4,1.6,4.1V47.3z M168.7,44.8
			c0-1-0.2-1.8-0.7-2.4c-0.5-0.6-1.1-0.9-1.9-0.9c-0.8,0-1.5,0.3-1.9,0.9c-0.4,0.6-0.7,1.4-0.7,2.4v2.4c0,1,0.2,1.8,0.7,2.4
			c0.5,0.6,1.1,0.9,1.9,0.9c0.8,0,1.5-0.3,1.9-0.9c0.5-0.6,0.7-1.4,0.7-2.4V44.8z"/>
		<path class="st4" d="M176.8,47.6v5.2h-3.1V39.3h5.2c1.6,0,2.8,0.4,3.7,1.1c0.9,0.7,1.4,1.7,1.4,3c0,0.7-0.2,1.3-0.6,1.8
			c-0.4,0.5-0.9,0.9-1.6,1.2c0.8,0.2,1.4,0.6,1.8,1.2c0.4,0.5,0.5,1.2,0.5,2v0.9c0,0.4,0.1,0.8,0.2,1.2c0.1,0.5,0.3,0.8,0.5,1v0.2
			h-3.2c-0.2-0.2-0.4-0.5-0.5-1c-0.1-0.5-0.1-0.9-0.1-1.4v-0.8c0-0.6-0.2-1.1-0.5-1.5c-0.3-0.3-0.8-0.5-1.5-0.5H176.8z M176.8,45.2
			h2.1c0.6,0,1.1-0.1,1.4-0.4c0.3-0.3,0.5-0.7,0.5-1.2c0-0.5-0.2-1-0.5-1.3c-0.3-0.3-0.8-0.5-1.4-0.5h-2V45.2z"/>
		<path class="st4" d="M195.1,41.7h-3.6v11.1h-3.1V41.7h-3.5v-2.4h10.2V41.7z"/>
		<path class="st4" d="M204.8,47h-5.3v3.4h6.2v2.4h-9.4V39.3h9.4v2.4h-6.2v2.9h5.3V47z"/>
		<path class="st4" d="M211.2,39.3l3,9.4h0.1l3.1-9.4h4.1v13.5h-3.1v-3.3l0.3-6.2l-0.1,0l-3.2,9.5h-2.1l-3.2-9.4l-0.1,0l0.3,6.1v3.3
			h-3.1V39.3H211.2z"/>
		<path class="st4" d="M223.6,52.8V39.3h4.6c1.7,0,3,0.3,3.9,0.9c0.9,0.6,1.4,1.5,1.4,2.8c0,0.6-0.2,1.2-0.5,1.7
			c-0.3,0.5-0.8,0.9-1.4,1.1c0.8,0.2,1.4,0.5,1.7,1.1c0.4,0.5,0.6,1.2,0.6,1.9c0,1.3-0.4,2.3-1.3,3c-0.9,0.7-2.1,1-3.8,1H223.6z
			 M226.7,45h1.6c0.7,0,1.2-0.1,1.6-0.4c0.4-0.3,0.5-0.6,0.5-1.2c0-0.6-0.2-1-0.5-1.3c-0.4-0.3-0.9-0.4-1.6-0.4h-1.5V45z M226.7,47
			v3.4h2.2c0.7,0,1.2-0.1,1.5-0.4c0.3-0.3,0.5-0.7,0.5-1.2c0-0.6-0.1-1-0.4-1.3c-0.3-0.3-0.8-0.4-1.4-0.4H226.7z"/>
		<path class="st4" d="M242.9,50.2h-4.2l-0.8,2.6h-3.1l4.3-13.5h3.4l4.4,13.5h-3.1L242.9,50.2z M239.4,47.8h2.9l-1.4-4.8h-0.1
			L239.4,47.8z"/>
		<path class="st4" d="M250.9,50.4h5.8v2.4h-8.9V39.3h3.1V50.4z"/>
		<path class="st4" d="M261.2,50.4h5.8v2.4H258V39.3h3.1V50.4z"/>
		<path class="st4" d="M275.6,50.2h-4.2l-0.8,2.6h-3.1l4.3-13.5h3.4l4.4,13.5h-3.1L275.6,50.2z M272.1,47.8h2.9l-1.4-4.8h-0.1
			L272.1,47.8z"/>
		<path class="st4" d="M291,50.9c-0.5,0.5-1.1,1-2,1.4c-0.9,0.4-2,0.6-3.3,0.6c-1.7,0-3-0.5-4.1-1.5c-1-1-1.6-2.4-1.6-4v-2.8
			c0-1.6,0.5-2.9,1.5-4c1-1,2.3-1.5,3.9-1.5c1.7,0,3,0.4,3.9,1.2c0.9,0.8,1.4,1.9,1.5,3.3l0,0.1H288c-0.1-0.7-0.3-1.2-0.7-1.6
			c-0.4-0.4-0.9-0.5-1.6-0.5c-0.7,0-1.3,0.3-1.8,0.9c-0.4,0.6-0.7,1.3-0.7,2.2v2.8c0,0.9,0.2,1.7,0.7,2.3c0.4,0.6,1.1,0.9,1.8,0.9
			c0.6,0,1,0,1.4-0.1c0.3-0.1,0.6-0.2,0.8-0.4V48h-2.1v-2.1h5.3V50.9z"/>
		<path class="st4" d="M301.4,47h-5.3v3.4h6.2v2.4h-9.4V39.3h9.4v2.4h-6.2v2.9h5.3V47z"/>
	</g>
</g>
</svg>
