<?xml version="1.0" encoding="utf-8"?>
<!-- Generator: Adobe Illustrator 23.0.6, SVG Export Plug-In . SVG Version: 6.00 Build 0)  -->
<svg version="1.1" id="Warstwa_1" xmlns="http://www.w3.org/2000/svg" xmlns:xlink="http://www.w3.org/1999/xlink" x="0px" y="0px"
	 viewBox="0 0 155.9 157" style="enable-background:new 0 0 155.9 157;" xml:space="preserve">
<style type="text/css">
	.st0{fill:#726658;}
	.st1{fill:#594A42;}
	.st2{fill:#9B8579;}
	.st3{fill:#C2B59B;}
</style>
<g>
	<g>
		<polygon class="st0" points="78,157 89,151.7 89,78.4 78,72.9 		"/>
	</g>
	<g>
		<polygon class="st1" points="78,72.9 76,71.9 76,130.8 24.1,45.9 24,45.9 24,45.8 11,39.3 13,124.5 24,118.7 24,65.5 76,150.5 
			76,150.5 78,157 		"/>
	</g>
	<g>
		<polygon class="st1" points="110.5,62.1 110.5,75.2 110.5,140.8 97.5,134.2 97.5,68.7 		"/>
	</g>
	<g>
		<polygon class="st2" points="155.9,50.3 142.9,43.8 77.9,76.5 58.4,66.6 110.4,40.4 110.4,29.4 45.4,60.1 26,50.3 91,17.6 91,6.6 
			0,50.3 0,50.3 0,50.3 77.9,89.6 78,89.6 78,89.6 		"/>
	</g>
	<g>
		<polygon class="st2" points="65,71.9 65,130.8 13.1,45.9 13,45.9 13,45.8 0,39.3 0,117.9 13,124.5 13,65.5 65,150.5 65,150.5 
			78,157 78,78.4 		"/>
	</g>
	<g>
		<polygon class="st0" points="155.9,39.3 123.4,55.6 110.4,62.1 78,78.4 78,91.5 110.4,75.2 110.4,140.8 123.4,134.2 123.4,68.7 
			155.9,52.4 		"/>
	</g>
	<g>
		<polygon class="st3" points="155.9,39.3 142.9,32.7 77.9,65.4 58.4,55.6 110.4,29.4 97.4,22.9 45.4,49 26,39.3 91,6.6 78,0 
			0,39.3 77.9,78.5 78,78.5 78,78.5 		"/>
	</g>
</g>
</svg>
