<?xml version="1.0" encoding="utf-8"?>
<!-- Generator: Adobe Illustrator 23.0.6, SVG Export Plug-In . SVG Version: 6.00 Build 0)  -->
<svg version="1.1" id="Warstwa_1" xmlns="http://www.w3.org/2000/svg" xmlns:xlink="http://www.w3.org/1999/xlink" x="0px" y="0px"
	 viewBox="0 0 237.3 237.3" style="enable-background:new 0 0 237.3 237.3;" xml:space="preserve">
<path d="M202.6,202.6L193,203l-1.7,9.4l-9.5-0.7l-2.8,9.1l-9.3-1.9l-4,8.7l-9-3l-5,8.1l-8.6-4.2l-6,7.4l-8-5.2l-6.9,6.6l-7.3-6.2
	l-7.6,5.7l-6.4-7l-8.3,4.7l-5.5-7.8l-8.8,3.6l-4.5-8.4l-9.2,2.5l-3.4-8.9l-9.4,1.3l-2.3-9.2l-9.5,0.1l-1.1-9.5l-9.5-1.1l0.1-9.5
	l-9.2-2.3l1.3-9.4l-8.9-3.4l2.5-9.2L7,158.8l3.6-8.8l-7.8-5.5l4.7-8.3l-7-6.4l5.7-7.6L0,114.9l6.6-6.9l-5.2-8l7.4-6l-4.2-8.6l8.1-5
	l-3-9l8.7-4l-1.9-9.3l9.1-2.8l-0.7-9.5l9.4-1.7l0.5-9.5l9.5-0.5l1.7-9.4l9.5,0.7l2.8-9.1l9.3,1.9l4-8.7l9,3l5-8.1l8.6,4.2l6-7.4
	l8,5.2l6.9-6.6l7.3,6.2l7.6-5.7l6.4,7l8.3-4.7l5.5,7.8l8.8-3.6l4.5,8.4l9.2-2.5l3.4,8.9l9.4-1.3l2.3,9.2l9.5-0.1l1.1,9.5l9.5,1.1
	l-0.1,9.5l9.2,2.3l-1.3,9.4l8.9,3.4l-2.5,9.2l8.4,4.5l-3.6,8.8l7.8,5.5l-4.7,8.3l7,6.4l-5.7,7.6l6.2,7.3l-6.6,6.9l5.2,8l-7.4,6
	l4.2,8.6l-8.1,5l3,9l-8.7,4l1.9,9.3l-9.1,2.8l0.7,9.5L203,193L202.6,202.6z"/>
</svg>
