<svg version="1.1" id="Layer_1" xmlns="http://www.w3.org/2000/svg" x="0" y="0" viewBox="0 0 512 298.7" xml:space="preserve"><style>.st1{fill:#bd0034}</style><path fill="#fff" d="M0 0h512v298.7H0z"/><path class="st1" d="M342.8 108L512 13.2V0h-11.7L307.4 108zm-8 88.7L512 295.8V276l-141.8-79.3zM0 22.7L151.5 108H187L0 2.8zm178.9 174L0 296.9v1.8h32.3l182.1-102z"/><path d="M477 0H297.7v100.4zM218.5 0H40l178.5 100.4zM512 108V39.4L390.4 108zm0 156.4v-67.7H390.4zM50.1 298.7h168.4v-94.5zm247.6 0h168.9l-168.9-94.5zM0 196.7v70.8l125.8-70.8zM0 108h125.8L0 37z" fill="#1a237b"/><path class="st1" d="M234.4 0v125.7H0v53.2h234.4v119.8h47.5V178.9H512v-53.2H281.9V0z"/></svg>